<svg id="Layer_1" data-name="Layer 1" xmlns="http://www.w3.org/2000/svg" viewBox="0 0 762.25 138"><defs><style>.cls-1{fill:#604e46;}</style></defs><title>201229_Logo Albstadt-only</title><path class="cls-1" d="M57.56,92.61a4.07,4.07,0,0,1,2.71,1.26,3.74,3.74,0,0,1,1.25,2.84,3.89,3.89,0,0,1-1.25,3,3.75,3.75,0,0,1-2.82,1.15h-.27a27.23,27.23,0,0,1-19.86-8.2,27.47,27.47,0,0,1-8.57-20V27.53a4,4,0,0,1,1.19-3,4.11,4.11,0,0,1,5.81,0,4.39,4.39,0,0,1,1.19,3V72a20.33,20.33,0,0,0,1.47,7.76,22,22,0,0,0,4.18,6.56l.76.66a3.65,3.65,0,0,1,.65.66,3.15,3.15,0,0,0,.81.71c.05.05.11.11.11.16a3.47,3.47,0,0,0,.49.33,3,3,0,0,0,.49.38l.38.22.81.49a3.36,3.36,0,0,1,.65.49l1.46.49,1.47.49,1.9.44,1.79.49,3.15.22Z"/><path class="cls-1" d="M116.49,53a27.71,27.71,0,0,1,0,39.34,27.31,27.31,0,0,1-39,0,26.75,26.75,0,0,1-8.14-19.67A26.92,26.92,0,0,1,77.48,53a27.31,27.31,0,0,1,39,0ZM97,92.39a18.8,18.8,0,0,0,13.89-5.74,20,20,0,0,0,0-27.92,19.68,19.68,0,0,0-27.78,0,19.89,19.89,0,0,0,0,28A18.8,18.8,0,0,0,97,92.45Z"/><path class="cls-1" d="M191.42,97.75c0,6.67-2.88,12.35-8.63,17a30.76,30.76,0,0,1-20,6.78,3.64,3.64,0,0,1-2.82-1.2,3.86,3.86,0,0,1-1.19-2.84,4,4,0,0,1,1.19-3,3.64,3.64,0,0,1,2.82-1.2,26.57,26.57,0,0,0,8-1.15,20.78,20.78,0,0,0,6.73-3.66c3.91-3.11,5.86-6.67,5.86-10.82V92.34a26.11,26.11,0,0,1-2.6,2.29q-1.38,1.06-2.77,2a27.34,27.34,0,0,1-14.49,4,27.89,27.89,0,0,1-27.89-27.81,27.89,27.89,0,0,1,27.89-27.76,27.85,27.85,0,0,1,10.85,2,24.72,24.72,0,0,1,9.06,6.12l3.63,4.1,1.19,2.24L189.3,62l1.14,2.79.54,2c.11,1,.22,2,.27,3s.11,2,.11,3V97.64Zm-27.94-5.3a19.21,19.21,0,0,0,14.05-5.74,18.8,18.8,0,0,0,5.81-13.88A19.89,19.89,0,0,0,149.48,58.9a20.43,20.43,0,0,0-4.39,6.39,19.85,19.85,0,0,0,0,15,20.42,20.42,0,0,0,4.39,6.39,19,19,0,0,0,14,5.74Z"/><path class="cls-1" d="M249.74,53a27.71,27.71,0,0,1,0,39.34,27.31,27.31,0,0,1-39,0,26.75,26.75,0,0,1-8.14-19.67A26.92,26.92,0,0,1,210.73,53a27.31,27.31,0,0,1,39,0Zm-19.48,39.4a18.8,18.8,0,0,0,13.89-5.74,20,20,0,0,0,0-27.92,19.68,19.68,0,0,0-27.78,0,19.89,19.89,0,0,0,0,28,18.8,18.8,0,0,0,13.89,5.74Z"/><path class="cls-1" d="M356.05,96.76a3.84,3.84,0,0,1-1.14,2.84,3.8,3.8,0,0,1-2.82,1.2,3.76,3.76,0,0,1-4.07-4V92.56c-.76.71-1.63,1.48-2.6,2.24s-1.85,1.37-2.6,1.86A27.6,27.6,0,0,1,336,99.77a26.23,26.23,0,0,1-7.54,1,26.58,26.58,0,0,1-19.59-8.2,27,27,0,0,1-8.08-19.67,27,27,0,0,1,8.08-19.67,27.57,27.57,0,0,1,39.23,0,27,27,0,0,1,8.08,19.67V96.87Zm-13.67-9.83A19.05,19.05,0,0,0,348.13,73a19.6,19.6,0,0,0-5.75-14.1,18.93,18.93,0,0,0-13.94-5.74,18.68,18.68,0,0,0-13.89,5.74,19.43,19.43,0,0,0-5.75,14,19.22,19.22,0,0,0,5.75,14,19.62,19.62,0,0,0,27.83,0Z"/><path class="cls-1" d="M394.79,92.61a4.07,4.07,0,0,1,2.71,1.26,3.74,3.74,0,0,1,1.25,2.84,3.89,3.89,0,0,1-1.25,3,3.75,3.75,0,0,1-2.82,1.15h-.27a27.24,27.24,0,0,1-19.86-8.2,27.47,27.47,0,0,1-8.57-20V27.53a4,4,0,0,1,1.19-3,4.11,4.11,0,0,1,5.81,0,4.39,4.39,0,0,1,1.19,3V72a20.35,20.35,0,0,0,1.46,7.76,22,22,0,0,0,4.18,6.56l.76.66a3.69,3.69,0,0,1,.65.66,3.16,3.16,0,0,0,.81.71c.05.05.11.11.11.16a3.5,3.5,0,0,0,.49.33,3,3,0,0,0,.49.38l.38.22.81.49a3.36,3.36,0,0,1,.65.49l1.46.49,1.47.49,1.9.44,1.79.49,3.15.22Z"/><path class="cls-1" d="M434.45,44.47a26.94,26.94,0,0,1,19.86,8.25,27.16,27.16,0,0,1,8.19,19.89,27.16,27.16,0,0,1-8.19,19.89,27.94,27.94,0,0,1-47.69-19.83V26.88a5.5,5.5,0,0,1,.16-1.48,2.77,2.77,0,0,1,.49-1,5,5,0,0,1,3.42-1.64,4.89,4.89,0,0,1,3.26,1.64,2.28,2.28,0,0,1,.6,1,5.54,5.54,0,0,1,.16,1.48V52.94a26.17,26.17,0,0,1,2.6-2.29,28.74,28.74,0,0,1,2.77-2,30.29,30.29,0,0,1,7-3,26.18,26.18,0,0,1,7.38-1Zm0,48.36a19.8,19.8,0,0,0,19.91-19.94,19.28,19.28,0,0,0-5.75-14.15,19.4,19.4,0,0,0-14.16-5.9,19,19,0,0,0-14,5.85,19.41,19.41,0,0,0-5.7,14.1,19.41,19.41,0,0,0,5.7,14.15,19,19,0,0,0,14,5.85Z"/><path class="cls-1" d="M514,77.75a13.34,13.34,0,0,1,1.36,6.45v1.09a7.08,7.08,0,0,1-.05,1.09,11.24,11.24,0,0,1-.87,3.33,14.5,14.5,0,0,1-2,3.28,19.45,19.45,0,0,1-7.92,6.06,28.92,28.92,0,0,1-11.39,2,24.34,24.34,0,0,1-17.42-6.88A20.33,20.33,0,0,1,472,89.28H472a3.75,3.75,0,0,1-.65-2.08v-.6a1.9,1.9,0,0,1,.16-.66,4.93,4.93,0,0,1,.65-1.31,3.34,3.34,0,0,1,1.25-1l-.05.05a3.48,3.48,0,0,1,2-.66,3.25,3.25,0,0,1,1.3.27v-.05A3.93,3.93,0,0,1,478,84a5,5,0,0,1,1,1.15,19.68,19.68,0,0,0,2.44,3.17,13.68,13.68,0,0,0,3.26,2.51,19.41,19.41,0,0,0,4,1.64A16,16,0,0,0,493,93a20.41,20.41,0,0,0,7.65-1.31,12.55,12.55,0,0,0,5.15-3.61A5.82,5.82,0,0,0,507,85.84v-.33a4.29,4.29,0,0,0,.11-.82V84a9.66,9.66,0,0,0-.05-1.31,2.63,2.63,0,0,0-.33-1A9.11,9.11,0,0,0,504,79a11.51,11.51,0,0,0-4.23-1.53,31.08,31.08,0,0,0-6.4-.55,36.17,36.17,0,0,1-9-1,17.86,17.86,0,0,1-6.24-2.79,24.65,24.65,0,0,1-3.26-2.9,12.5,12.5,0,0,1-2.12-3,12.37,12.37,0,0,1-1-5.9l.05-1.42a9.67,9.67,0,0,1,.81-3.28,16.15,16.15,0,0,1,2-3.33,19.46,19.46,0,0,1,7.92-6.07,28.8,28.8,0,0,1,11.34-2.08,24.62,24.62,0,0,1,8.46,1.48,26.4,26.4,0,0,1,7.38,4.1A5.67,5.67,0,0,1,510.85,52a3.59,3.59,0,0,1,.49,1.8,6.13,6.13,0,0,1-.16,1.47,2.9,2.9,0,0,1-.65,1.2,3.48,3.48,0,0,1-1.19,1,3.92,3.92,0,0,1-1.79.44,4,4,0,0,1-2.55-.77c-.05,0-.11-.05-.16-.11a16.11,16.11,0,0,0-10.74-3.93,20,20,0,0,0-7.65,1.31,13.1,13.1,0,0,0-5.1,3.61V58a4.93,4.93,0,0,0-1.14,2.29v.66a10.22,10.22,0,0,0,.22,2.79V63.6a8.75,8.75,0,0,0,2.77,2.73,13,13,0,0,0,4.23,1.58,30.38,30.38,0,0,0,6.29.6,39,39,0,0,1,8.9.93,18.88,18.88,0,0,1,6.35,2.62,23.66,23.66,0,0,1,3,2.57A13.77,13.77,0,0,1,514,77.37H514Z"/><path class="cls-1" d="M551.75,92.61a4,4,0,0,1,2.88,1.26,3.74,3.74,0,0,1,1.25,2.84,4.06,4.06,0,0,1-1.25,3,3.91,3.91,0,0,1-2.93,1.15,27.46,27.46,0,0,1-20.08-8.2,30,30,0,0,1-6.24-9.12,27.12,27.12,0,0,1-2.44-11V27.15a4.45,4.45,0,0,1,1.25-3,4.31,4.31,0,0,1,5.86,0,4,4,0,0,1,1.14,3V44.36h16a4.39,4.39,0,0,1,2.93,1.26,4,4,0,0,1,1.14,2.9,4.23,4.23,0,0,1-1.14,3,4.76,4.76,0,0,1-2.93,1.09h-16V72A20.54,20.54,0,0,0,551.7,92.56Z"/><path class="cls-1" d="M618.06,96.76a3.84,3.84,0,0,1-1.14,2.84,3.8,3.8,0,0,1-2.82,1.2,3.76,3.76,0,0,1-4.07-4V92.56c-.76.71-1.63,1.48-2.6,2.24s-1.84,1.37-2.6,1.86A27.58,27.58,0,0,1,598,99.77a26.23,26.23,0,0,1-7.54,1,26.58,26.58,0,0,1-19.59-8.2,27,27,0,0,1-8.08-19.67,27,27,0,0,1,8.08-19.67,27.57,27.57,0,0,1,39.23,0,27,27,0,0,1,8.08,19.67V96.87Zm-13.67-9.83A19.05,19.05,0,0,0,610.14,73a19.6,19.6,0,0,0-5.75-14.1,18.93,18.93,0,0,0-13.94-5.74,18.68,18.68,0,0,0-13.89,5.74,19.43,19.43,0,0,0-5.75,14,19.22,19.22,0,0,0,5.75,14,19.62,19.62,0,0,0,27.83,0Z"/><path class="cls-1" d="M683,73.38a27.18,27.18,0,0,1-8.25,19.83,27.7,27.7,0,0,1-39.34,0,27.09,27.09,0,0,1-8.25-19.83,27.09,27.09,0,0,1,8.25-19.83,26.69,26.69,0,0,1,19.64-8.31,27.4,27.4,0,0,1,14.54,4,21.58,21.58,0,0,1,2.82,2,31.5,31.5,0,0,1,2.44,2.19V27.2a4.46,4.46,0,0,1,1.25-3,4,4,0,0,1,2.82-1.15,4.13,4.13,0,0,1,2.93,1.15,4,4,0,0,1,1.14,2.9V73.38ZM655.06,93.21a19,19,0,0,0,14-5.85,19.24,19.24,0,0,0,5.75-14.1,19.58,19.58,0,0,0-5.75-14.15,18.76,18.76,0,0,0-14-5.85,19,19,0,0,0-14,5.85,20,20,0,0,0,0,28.2,19.16,19.16,0,0,0,14,5.85Z"/><path class="cls-1" d="M722.18,92.61a4,4,0,0,1,2.88,1.26,3.74,3.74,0,0,1,1.25,2.84,4.06,4.06,0,0,1-1.25,3,3.91,3.91,0,0,1-2.93,1.15A27.46,27.46,0,0,1,702,92.61a30,30,0,0,1-6.24-9.12,27.12,27.12,0,0,1-2.44-11V27.15a4.45,4.45,0,0,1,1.25-3,4.31,4.31,0,0,1,5.86,0,4,4,0,0,1,1.14,3V44.36h16a4.39,4.39,0,0,1,2.93,1.26,4,4,0,0,1,1.14,2.9,4.23,4.23,0,0,1-1.14,3,4.76,4.76,0,0,1-2.93,1.09h-16V72a20.54,20.54,0,0,0,20.51,20.54Z"/></svg>