<svg id="Layer_1" data-name="Layer 1" xmlns="http://www.w3.org/2000/svg" viewBox="0 0 1014.82 372"><defs><style>.cls-1{font-size:111.91px;font-family:Modulus-Bold, Modulus;font-weight:700;}.cls-1,.cls-4{fill:#807e7d;}.cls-2{fill:#796357;}.cls-3{fill:#ac968f;}.cls-5{fill:#c8b2a6;}</style></defs><title>201117_Logo Albstadt_outlines</title><text class="cls-1" transform="translate(-514.29 263.86) scale(0.99 1)">albstadt</text><path class="cls-2" d="M258.55,295.25H186.39a3.55,3.55,0,0,1-3.55-3.55V265.46a28.41,28.41,0,0,1-5.45.52,28.94,28.94,0,1,1,5.45-57.36V182.33a3.55,3.55,0,0,1,3.55-3.55h31a3.55,3.55,0,0,1,3.32,4.8,21.84,21.84,0,1,0,42.26,7.75,20.81,20.81,0,0,0-1.44-7.69,3.55,3.55,0,0,1,3.3-4.86h31a3.55,3.55,0,0,1,3.55,3.55v16.15a3.55,3.55,0,1,1-7.1,0v-12.6H269.52a28.41,28.41,0,0,1,.52,5.45,28.94,28.94,0,1,1-57.36-5.45H189.94V213.3a3.55,3.55,0,0,1-4.8,3.32,21.84,21.84,0,1,0-7.75,42.26,20.81,20.81,0,0,0,7.69-1.44,3.55,3.55,0,0,1,4.86,3.3v27.41h68.6a33.77,33.77,0,0,0,30.7-19.87,3.55,3.55,0,0,1,6.47,2.92A40.89,40.89,0,0,1,258.55,295.25Zm37.22-57a3.55,3.55,0,0,1-3.55-3.55V234a3.55,3.55,0,0,1,7.1,0v.71A3.55,3.55,0,0,1,295.76,238.26Z"/><path class="cls-3" d="M186.39,295.25H170.24a3.55,3.55,0,1,1,0-7.1h12.6V265.46a28.41,28.41,0,0,1-5.45.52,28.94,28.94,0,1,1,5.45-57.36V185.88H155.43a3.55,3.55,0,0,1-3.33-4.8,21.84,21.84,0,1,0-42.26-7.75,20.81,20.81,0,0,0,1.45,7.69,3.55,3.55,0,0,1-3.3,4.86H80.57v68.6a33.77,33.77,0,0,0,19.87,30.7,3.55,3.55,0,1,1-2.92,6.47,40.89,40.89,0,0,1-24-37.17V182.33A3.55,3.55,0,0,1,77,178.78h26.24a28.41,28.41,0,0,1-.52-5.45,28.94,28.94,0,1,1,57.36,5.45h26.29a3.55,3.55,0,0,1,3.55,3.55v31a3.55,3.55,0,0,1-4.8,3.32,21.84,21.84,0,1,0-7.75,42.26,20.81,20.81,0,0,0,7.69-1.44,3.55,3.55,0,0,1,4.86,3.3v31A3.55,3.55,0,0,1,186.39,295.25Zm-51.66,0H134a3.55,3.55,0,1,1,0-7.1h.71a3.55,3.55,0,1,1,0,7.1Z"/><path class="cls-4" d="M186.39,185.88h-31a3.55,3.55,0,0,1-3.33-4.8,21.84,21.84,0,1,0-42.26-7.75,20.81,20.81,0,0,0,1.45,7.69,3.55,3.55,0,0,1-3.3,4.86H77a3.55,3.55,0,0,1-3.55-3.55V116.77a3.55,3.55,0,1,1,7.1,0v62h22.69a28.41,28.41,0,0,1-.52-5.45,28.94,28.94,0,1,1,57.36,5.45h22.74V150.55a3.55,3.55,0,0,1,5.28-3.1,21.36,21.36,0,0,0,10.37,2.71c12,0,21.81-10.1,21.81-22.51s-9.78-22.51-21.81-22.51a20.77,20.77,0,0,0-10.33,2.68,3.55,3.55,0,0,1-5.32-3.08V76.51H120.91a3.55,3.55,0,1,1,0-7.1h65.48A3.55,3.55,0,0,1,189.94,73V99.34a28.44,28.44,0,0,1,8.54-1.3c15.94,0,28.91,13.28,28.91,29.61s-13,29.61-28.91,29.61a28.34,28.34,0,0,1-8.54-1.33v26.4A3.55,3.55,0,0,1,186.39,185.88ZM87.72,87.65a3.55,3.55,0,0,1-2.53-6l.55-.55a3.55,3.55,0,1,1,5,5.08l-.45.45A3.54,3.54,0,0,1,87.72,87.65Z"/><path class="cls-5" d="M241.08,220.29a29,29,0,0,1-28.39-34.41H186.39a3.55,3.55,0,0,1-3.55-3.55V150.55a3.55,3.55,0,0,1,5.28-3.1,21.36,21.36,0,0,0,10.37,2.71c12,0,21.81-10.1,21.81-22.51s-9.78-22.51-21.81-22.51a20.77,20.77,0,0,0-10.33,2.68,3.55,3.55,0,0,1-5.32-3.08V73a3.55,3.55,0,0,1,3.55-3.55h61.31a3.55,3.55,0,0,1,0,7.1H189.94V99.34a28.47,28.47,0,0,1,8.54-1.3c15.94,0,28.91,13.28,28.91,29.61s-13,29.61-28.91,29.61a28.34,28.34,0,0,1-8.54-1.33v22.85h27.41a3.55,3.55,0,0,1,3.32,4.8,21.84,21.84,0,1,0,42.26,7.75,20.81,20.81,0,0,0-1.44-7.69,3.55,3.55,0,0,1,3.3-4.86h27.41V112.6a3.55,3.55,0,1,1,7.1,0v69.73a3.55,3.55,0,0,1-3.55,3.55H269.52a28.41,28.41,0,0,1,.52,5.45A29,29,0,0,1,241.08,220.29ZM282,84.85a3.53,3.53,0,0,1-2.24-.8l-.51-.4a3.55,3.55,0,0,1,4.39-5.59l.6.48a3.55,3.55,0,0,1-2.24,6.3Z"/><path class="cls-4" d="M457,140.63a4.07,4.07,0,0,1,2.71,1.26,3.74,3.74,0,0,1,1.25,2.84,3.89,3.89,0,0,1-1.25,3,3.75,3.75,0,0,1-2.82,1.15h-.27a28.63,28.63,0,0,1-28.43-28.2V75.55a4,4,0,0,1,1.19-3,4.11,4.11,0,0,1,5.81,0,4.39,4.39,0,0,1,1.19,3V120a20.33,20.33,0,0,0,1.47,7.76,22,22,0,0,0,4.18,6.56l.76.66a3.65,3.65,0,0,1,.65.66,3.15,3.15,0,0,0,.81.71c.05.05.11.11.11.16a3.47,3.47,0,0,0,.49.33,3,3,0,0,0,.49.38l.38.22.81.49a3.36,3.36,0,0,1,.65.49l1.46.49,1.47.49,1.9.44,1.79.49,3.15.22Z"/><path class="cls-4" d="M515.95,101a27.71,27.71,0,0,1,0,39.34,27.31,27.31,0,0,1-39,0,27.84,27.84,0,0,1,0-39.34,27.31,27.31,0,0,1,39,0Zm-19.48,39.4a18.8,18.8,0,0,0,13.89-5.74,20,20,0,0,0,0-27.92,19.68,19.68,0,0,0-27.78,0,19.89,19.89,0,0,0,0,28,18.8,18.8,0,0,0,13.89,5.74Z"/><path class="cls-4" d="M590.88,145.76c0,6.67-2.88,12.35-8.63,17a30.76,30.76,0,0,1-20,6.78,3.64,3.64,0,0,1-2.82-1.2,3.86,3.86,0,0,1-1.19-2.84,4,4,0,0,1,1.19-3,3.64,3.64,0,0,1,2.82-1.2,26.57,26.57,0,0,0,8-1.15,20.78,20.78,0,0,0,6.73-3.66c3.91-3.11,5.86-6.67,5.86-10.82v-5.35a26.11,26.11,0,0,1-2.6,2.29q-1.38,1.06-2.77,2a27.34,27.34,0,0,1-14.49,4A27.89,27.89,0,0,1,535,120.85a27.89,27.89,0,0,1,27.89-27.76,27.85,27.85,0,0,1,10.85,2,24.72,24.72,0,0,1,9.06,6.12l3.63,4.1,1.19,2.24,1.08,2.46,1.14,2.79.54,2c.11,1,.22,2,.27,3s.11,2,.11,3v24.81Zm-27.94-5.3A19.21,19.21,0,0,0,577,134.72a18.8,18.8,0,0,0,5.81-13.88,19.89,19.89,0,0,0-33.86-13.93,20.43,20.43,0,0,0-4.39,6.39,19.85,19.85,0,0,0,0,15,20.42,20.42,0,0,0,4.39,6.39,19,19,0,0,0,14,5.74Z"/><path class="cls-4" d="M649.2,101a27.71,27.71,0,0,1,0,39.34,27.31,27.31,0,0,1-39,0,27.84,27.84,0,0,1,0-39.34,27.31,27.31,0,0,1,39,0Zm-19.48,39.4a18.8,18.8,0,0,0,13.89-5.74,20,20,0,0,0,0-27.92,19.68,19.68,0,0,0-27.78,0,19.89,19.89,0,0,0,0,28,18.8,18.8,0,0,0,13.89,5.74Z"/><path class="cls-4" d="M597.9,256.13a3.84,3.84,0,0,1-1.14,2.84,3.8,3.8,0,0,1-2.82,1.2,3.76,3.76,0,0,1-4.07-4v-4.21c-.76.71-1.63,1.48-2.6,2.24s-1.85,1.37-2.6,1.86a27.6,27.6,0,0,1-6.84,3.11,26.23,26.23,0,0,1-7.54,1A26.58,26.58,0,0,1,550.7,252a28,28,0,0,1,0-39.34,27.57,27.57,0,0,1,39.23,0A27,27,0,0,1,598,232.31v23.93Zm-13.67-9.83A19.05,19.05,0,0,0,590,232.37a19.6,19.6,0,0,0-5.75-14.1,18.93,18.93,0,0,0-13.94-5.74,18.68,18.68,0,0,0-13.89,5.74,19.43,19.43,0,0,0-5.75,14,19.22,19.22,0,0,0,5.75,14,19.62,19.62,0,0,0,27.83,0Z"/><path class="cls-4" d="M636.64,252a4.07,4.07,0,0,1,2.71,1.26,3.74,3.74,0,0,1,1.25,2.84,3.89,3.89,0,0,1-1.25,3,3.75,3.75,0,0,1-2.82,1.15h-.27A28.63,28.63,0,0,1,607.83,232V186.9a4,4,0,0,1,1.19-3,4.11,4.11,0,0,1,5.81,0,4.39,4.39,0,0,1,1.19,3v44.48a20.35,20.35,0,0,0,1.46,7.76,22,22,0,0,0,4.18,6.56l.76.66a3.69,3.69,0,0,1,.65.66,3.16,3.16,0,0,0,.81.71c.05.05.11.11.11.16a3.5,3.5,0,0,0,.49.33,3,3,0,0,0,.49.38l.38.22.81.49a3.36,3.36,0,0,1,.65.49l1.46.49,1.47.49,1.9.44,1.79.49,3.15.22Z"/><path class="cls-4" d="M676.3,203.84a28.17,28.17,0,0,1,19.86,48A27.94,27.94,0,0,1,648.47,232V186.25a5.5,5.5,0,0,1,.16-1.48,2.77,2.77,0,0,1,.49-1,5,5,0,0,1,3.42-1.64,4.89,4.89,0,0,1,3.26,1.64,2.28,2.28,0,0,1,.6,1,5.54,5.54,0,0,1,.16,1.48v26.06a26.17,26.17,0,0,1,2.6-2.29,28.74,28.74,0,0,1,2.77-2,30.29,30.29,0,0,1,7-3,26.18,26.18,0,0,1,7.38-1Zm0,48.36a20,20,0,0,0,14.16-34.1,19.4,19.4,0,0,0-14.16-5.9,19,19,0,0,0-14,5.85,20.36,20.36,0,0,0,0,28.25,19,19,0,0,0,14,5.85Z"/><path class="cls-4" d="M755.84,237.12a13.34,13.34,0,0,1,1.36,6.45v1.09a7.08,7.08,0,0,1-.05,1.09,11.24,11.24,0,0,1-.87,3.33,14.5,14.5,0,0,1-2,3.28,19.45,19.45,0,0,1-7.92,6.06,28.92,28.92,0,0,1-11.39,2,24.34,24.34,0,0,1-17.42-6.88,20.33,20.33,0,0,1-3.74-4.92h.05a3.75,3.75,0,0,1-.65-2.08V246a1.9,1.9,0,0,1,.16-.66,4.93,4.93,0,0,1,.65-1.31,3.34,3.34,0,0,1,1.25-1l-.05.05a3.48,3.48,0,0,1,2-.66,3.25,3.25,0,0,1,1.3.27v-.05a3.93,3.93,0,0,1,1.3.76,5,5,0,0,1,1,1.15,19.68,19.68,0,0,0,2.44,3.17,13.68,13.68,0,0,0,3.26,2.51,19.41,19.41,0,0,0,4,1.64,16,16,0,0,0,4.34.55,20.41,20.41,0,0,0,7.65-1.31,12.55,12.55,0,0,0,5.15-3.61,5.82,5.82,0,0,0,1.19-2.29v-.33a4.29,4.29,0,0,0,.11-.82v-.66a9.66,9.66,0,0,0-.05-1.31,2.63,2.63,0,0,0-.33-1,9.11,9.11,0,0,0-2.71-2.73,11.51,11.51,0,0,0-4.23-1.53,31.08,31.08,0,0,0-6.4-.55,36.17,36.17,0,0,1-9-1,17.86,17.86,0,0,1-6.24-2.79,24.65,24.65,0,0,1-3.26-2.9,12.5,12.5,0,0,1-2.12-3,12.37,12.37,0,0,1-1-5.9l.05-1.42a9.67,9.67,0,0,1,.81-3.28,16.15,16.15,0,0,1,2-3.33,19.46,19.46,0,0,1,7.92-6.07,28.8,28.8,0,0,1,11.34-2.08,24.62,24.62,0,0,1,8.46,1.48,26.4,26.4,0,0,1,7.38,4.1,5.67,5.67,0,0,1,1.14,1.15,3.59,3.59,0,0,1,.49,1.8,6.13,6.13,0,0,1-.16,1.47,2.9,2.9,0,0,1-.65,1.2,3.48,3.48,0,0,1-1.19,1,3.92,3.92,0,0,1-1.79.44,4,4,0,0,1-2.55-.77c-.05,0-.11-.05-.16-.11a16.11,16.11,0,0,0-10.74-3.93,20,20,0,0,0-7.65,1.31,13.1,13.1,0,0,0-5.1,3.61v-.05a4.93,4.93,0,0,0-1.14,2.29v.66a10.22,10.22,0,0,0,.22,2.79V223A8.75,8.75,0,0,0,725,225.7a13,13,0,0,0,4.23,1.58,30.38,30.38,0,0,0,6.29.6,39,39,0,0,1,8.9.93,18.88,18.88,0,0,1,6.35,2.62,23.66,23.66,0,0,1,3,2.57,13.77,13.77,0,0,1,2.12,2.73h-.05Z"/><path class="cls-4" d="M793.61,252a4,4,0,0,1,2.88,1.26,3.74,3.74,0,0,1,1.25,2.84,4.06,4.06,0,0,1-1.25,3,3.91,3.91,0,0,1-2.93,1.15,27.46,27.46,0,0,1-20.08-8.2,30,30,0,0,1-6.24-9.12,27.12,27.12,0,0,1-2.44-11V186.52a4.45,4.45,0,0,1,1.25-3,4.31,4.31,0,0,1,5.86,0,4,4,0,0,1,1.14,3v17.21h16a4.39,4.39,0,0,1,2.93,1.26,4,4,0,0,1,1.14,2.9,4.23,4.23,0,0,1-1.14,3A4.76,4.76,0,0,1,789,212H773v19.4a20.54,20.54,0,0,0,20.51,20.54Z"/><path class="cls-4" d="M859.91,256.13a3.84,3.84,0,0,1-1.14,2.84,3.8,3.8,0,0,1-2.82,1.2,3.76,3.76,0,0,1-4.07-4v-4.21c-.76.71-1.63,1.48-2.6,2.24s-1.84,1.37-2.6,1.86a27.58,27.58,0,0,1-6.84,3.11,26.23,26.23,0,0,1-7.54,1,26.58,26.58,0,0,1-19.59-8.2,28,28,0,0,1,0-39.34,27.57,27.57,0,0,1,39.23,0A27,27,0,0,1,860,232.31v23.93Zm-13.67-9.83A19.05,19.05,0,0,0,852,232.37a19.6,19.6,0,0,0-5.75-14.1,18.93,18.93,0,0,0-13.94-5.74,18.68,18.68,0,0,0-13.89,5.74,19.43,19.43,0,0,0-5.75,14,19.22,19.22,0,0,0,5.75,14,19.62,19.62,0,0,0,27.83,0Z"/><path class="cls-4" d="M924.86,232.75a27.18,27.18,0,0,1-8.25,19.83,27.7,27.7,0,0,1-39.34,0,28,28,0,0,1,0-39.67,26.69,26.69,0,0,1,19.64-8.31,27.4,27.4,0,0,1,14.54,4,21.58,21.58,0,0,1,2.82,2,31.5,31.5,0,0,1,2.44,2.19V186.58a4.46,4.46,0,0,1,1.25-3,4,4,0,0,1,2.82-1.15,4.13,4.13,0,0,1,2.93,1.15,4,4,0,0,1,1.14,2.9v46.23Zm-27.94,19.83a19,19,0,0,0,14-5.85,19.24,19.24,0,0,0,5.75-14.1,19.58,19.58,0,0,0-5.75-14.15,18.76,18.76,0,0,0-14-5.85,19,19,0,0,0-14,5.85,19.94,19.94,0,0,0,14,34Z"/><path class="cls-4" d="M964,252a4,4,0,0,1,2.88,1.26,3.74,3.74,0,0,1,1.25,2.84,4.06,4.06,0,0,1-1.25,3,3.91,3.91,0,0,1-2.93,1.15A27.46,27.46,0,0,1,943.9,252a30,30,0,0,1-6.24-9.12,27.12,27.12,0,0,1-2.44-11V186.52a4.45,4.45,0,0,1,1.25-3,4.31,4.31,0,0,1,5.86,0,4,4,0,0,1,1.14,3v17.21h16a4.39,4.39,0,0,1,2.93,1.26,4,4,0,0,1,1.14,2.9,4.23,4.23,0,0,1-1.14,3,4.76,4.76,0,0,1-2.93,1.09h-16v19.4A20.54,20.54,0,0,0,964,251.93Z"/><path class="cls-4" d="M458.84,313.2a11.49,11.49,0,0,1-10.65,11.45l-.22,0H434.31a.75.75,0,0,1,0-1.51h13.14a9.44,9.44,0,0,0,7-2.93,10,10,0,0,0,0-14.07,9.44,9.44,0,0,0-7-2.93H430.56v37.83a.75.75,0,1,1-1.5,0V302.48a.66.66,0,0,1,.75-.75h17.63a10.87,10.87,0,0,1,8,3.38A11,11,0,0,1,458.84,313.2Z"/><path class="cls-4" d="M476.6,313.59a10.78,10.78,0,0,1,8,3.35,11,11,0,0,1,3.3,8,.81.81,0,0,1-.85.81.88.88,0,0,1-.6-.22.86.86,0,0,1-.22-.59,9.41,9.41,0,0,0-2.82-6.87,9.54,9.54,0,0,0-13.59,0A9.39,9.39,0,0,0,467,325v16.26a.79.79,0,0,1-.22.59.82.82,0,0,1-.6.25.76.76,0,0,1-.6-.25.75.75,0,0,1-.25-.59V324.76a11,11,0,0,1,3.36-7.9A10.88,10.88,0,0,1,476.6,313.59Z"/><path class="cls-4" d="M522.11,327.9v13.17a.81.81,0,0,1-.85.81.88.88,0,0,1-.6-.22.86.86,0,0,1-.22-.59l0-6.56a13.92,13.92,0,0,1-5,5.3,14,14,0,1,1,6.66-11.91Zm-13.85,12.27a11.7,11.7,0,0,0,8.61-3.6,12.32,12.32,0,0,0,0-17.35,12.11,12.11,0,0,0-17.22,0,12.32,12.32,0,0,0,0,17.35A11.69,11.69,0,0,0,508.26,340.17Z"/><path class="cls-4" d="M550.61,340.48a.78.78,0,0,1,.17.47v.14a.78.78,0,0,1-.3.56.81.81,0,0,1-.5.17.78.78,0,0,1-.64-.31L539.57,329l-9.76,12.45a.76.76,0,0,1-.64.33.77.77,0,0,1-.53-.2.82.82,0,0,1-.3-.53V341a.78.78,0,0,1,.19-.53l10-12.79-10-12.76a.85.85,0,0,1-.19-.53v-.08a.8.8,0,0,1,.83-.73h.08a.92.92,0,0,1,.55.31l9.76,12.48,9.76-12.48a.83.83,0,0,1,.55-.31H550a.81.81,0,0,1,.5.17.78.78,0,0,1,.3.56v.14a.78.78,0,0,1-.17.47l-10,12.76Z"/><path class="cls-4" d="M557.12,313.4a.83.83,0,0,1,.61.25.85.85,0,0,1,.22.59V341a.86.86,0,0,1-.22.59.83.83,0,0,1-.61.25.8.8,0,0,1-.58-.25.81.81,0,0,1-.25-.59V314.23a.8.8,0,0,1,.25-.59A.79.79,0,0,1,557.12,313.4Zm.11-9.77a.71.71,0,0,1,.55.25.75.75,0,0,1,.25.59v5a.81.81,0,0,1-.25.59.75.75,0,0,1-.55.22.78.78,0,0,1-.58-.22.8.8,0,0,1-.25-.59v-5a.75.75,0,0,1,.25-.59A.74.74,0,0,1,557.23,303.62Z"/><path class="cls-4" d="M584.4,331a6.18,6.18,0,0,1,.55,2.88q0,.48,0,1h0v0h0a5.87,5.87,0,0,1-1.28,3q-3,3.92-9.51,3.92a12.15,12.15,0,0,1-6.1-1.59,11.16,11.16,0,0,1-4.32-4.33.79.79,0,0,1-.11-.39.82.82,0,0,1,.42-.73.77.77,0,0,1,.39-.11.68.68,0,0,1,.25.06.76.76,0,0,1,.5.39,9.34,9.34,0,0,0,3.71,3.69,10.66,10.66,0,0,0,5.27,1.34q5.71,0,8.15-3.2l.06-.06a4,4,0,0,0,.94-2.06v-.08q.06-.56.06-1a3.92,3.92,0,0,0-.36-1.92,6.68,6.68,0,0,0-1.94-2q-2-1.42-6.65-1.42-5.18,0-7.57-1.76a7.17,7.17,0,0,1-2.5-2.69,6.68,6.68,0,0,1-.42-2.66v-.67l0,0a5.65,5.65,0,0,1,1.25-2.91q3-3.94,9.45-3.94a11.68,11.68,0,0,1,7.85,2.85.71.71,0,0,1,.3.56v.08a.75.75,0,0,1-.19.5.76.76,0,0,1-.55.31H582a.73.73,0,0,1-.5-.2,10.25,10.25,0,0,0-6.82-2.43q-5.68,0-8.12,3.23l0,0a4,4,0,0,0-.94,2.09v.42a5.83,5.83,0,0,0,.28,2.09,6,6,0,0,0,1.94,2q2,1.45,6.65,1.45,5.18,0,7.6,1.76A7.81,7.81,0,0,1,584.4,331Z"/><path class="cls-4" d="M618.47,301.92a.87.87,0,0,1,0,1.73,12.27,12.27,0,0,0-9,3.75,12.5,12.5,0,0,0-3.71,9.09V318h10.17a.8.8,0,0,1,.58.25.82.82,0,0,1,.25.6.79.79,0,0,1-.25.58.8.8,0,0,1-.58.25H605.75V341a.84.84,0,0,1-.25.61.87.87,0,0,1-1.22,0A.84.84,0,0,1,604,341V316a14.13,14.13,0,0,1,4.38-10A13.92,13.92,0,0,1,618.47,301.92Z"/><path class="cls-4" d="M645.52,313.54a.86.86,0,0,1,.84.84v16.17a10.84,10.84,0,0,1-3.35,8,11.57,11.57,0,0,1-16.12.06,10.84,10.84,0,0,1-3.41-7.85V314.37a.8.8,0,0,1,.25-.59.8.8,0,0,1,.58-.25.74.74,0,0,1,.58.25.8.8,0,0,1,.25.59v16.17a9.15,9.15,0,0,0,2.88,6.79,9.86,9.86,0,0,0,13.81,0,9.19,9.19,0,0,0,2.86-6.79V314.37a.8.8,0,0,1,.25-.59A.77.77,0,0,1,645.52,313.54Zm-16.26-2.37a.85.85,0,0,1,.58-.22h3.22a.81.81,0,0,1,.83.84.81.81,0,0,1-.25.59.8.8,0,0,1-.58.25h-3.22a.8.8,0,0,1-.58-.25.81.81,0,0,1-.25-.59A.84.84,0,0,1,629.26,311.16Zm8.07,1.45a.8.8,0,0,1-.58-.25.81.81,0,0,1-.25-.59.84.84,0,0,1,.25-.61.85.85,0,0,1,.58-.22h3.22a.81.81,0,0,1,.83.84.81.81,0,0,1-.25.59.8.8,0,0,1-.58.25Z"/><path class="cls-4" d="M664,313.59a10.78,10.78,0,0,1,8,3.35,11,11,0,0,1,3.3,8,.81.81,0,0,1-.85.81.88.88,0,0,1-.6-.22.86.86,0,0,1-.22-.59,9.41,9.41,0,0,0-2.82-6.87,9.54,9.54,0,0,0-13.59,0,9.39,9.39,0,0,0-2.82,6.86v16.26a.79.79,0,0,1-.22.59.82.82,0,0,1-.6.25.76.76,0,0,1-.6-.25.75.75,0,0,1-.25-.59V324.76a11,11,0,0,1,3.36-7.9A10.88,10.88,0,0,1,664,313.59Z"/><path class="cls-4" d="M724.57,340.31a.75.75,0,0,1,0,1.51H696.1a.66.66,0,0,1-.75-.75V302.48a.75.75,0,1,1,1.5,0v37.83Z"/><path class="cls-4" d="M742.48,313.59a13.32,13.32,0,0,1,9.84,4.13,14.06,14.06,0,0,1,0,19.85,13.82,13.82,0,0,1-19.71,0,14.06,14.06,0,0,1,0-19.85A13.35,13.35,0,0,1,742.48,313.59Zm0,26.44a11.79,11.79,0,0,0,8.68-3.63,12.43,12.43,0,0,0,0-17.51,12.22,12.22,0,0,0-17.38,0,12.43,12.43,0,0,0,0,17.51A11.82,11.82,0,0,0,742.48,340Z"/><path class="cls-4" d="M790.66,327.67v13.85a10.53,10.53,0,0,1-4.27,8.41,15.81,15.81,0,0,1-10.29,3.46.8.8,0,0,1-.58-.25.79.79,0,0,1-.25-.58.82.82,0,0,1,.25-.6.8.8,0,0,1,.58-.25,14.25,14.25,0,0,0,9.09-3,8.94,8.94,0,0,0,3.8-7.22v-7.2a14.28,14.28,0,0,1-12.48,7.43,14.07,14.07,0,1,1,0-28.14,14.24,14.24,0,0,1,10.23,4.24l1.69,2,.69,1.2.5,1.17.47,1.15.33,1.31A23.91,23.91,0,0,1,790.66,327.67Zm-14.15,12.4a12.07,12.07,0,0,0,8.83-3.64,12.3,12.3,0,0,0,0-17.52,12.52,12.52,0,0,0-17.65,0,12.3,12.3,0,0,0,0,17.52A12.07,12.07,0,0,0,776.51,340.06Z"/><path class="cls-4" d="M810.57,313.59a13.32,13.32,0,0,1,9.84,4.13,14.06,14.06,0,0,1,0,19.85,13.82,13.82,0,0,1-19.71,0,14.06,14.06,0,0,1,0-19.85A13.35,13.35,0,0,1,810.57,313.59Zm0,26.44a11.79,11.79,0,0,0,8.68-3.63,12.43,12.43,0,0,0,0-17.51,12.22,12.22,0,0,0-17.38,0,12.43,12.43,0,0,0,0,17.51A11.82,11.82,0,0,0,810.57,340Z"/><path class="cls-4" d="M844.45,313.87a13.23,13.23,0,0,1,9.79,4.11,14,14,0,0,1,0,19.73,13.21,13.21,0,0,1-9.78,4.11,13.43,13.43,0,0,1-7.2-2,13.86,13.86,0,0,1-5-5.33v18a.8.8,0,0,1-.22.59.82.82,0,0,1-.6.25.76.76,0,0,1-.6-.25.75.75,0,0,1-.25-.59V327.84a13.44,13.44,0,0,1,4.08-9.86A13.24,13.24,0,0,1,844.45,313.87Zm0,26.27a11.69,11.69,0,0,0,8.61-3.6,12.34,12.34,0,0,0,0-17.37,12,12,0,0,0-17.22,0,12.27,12.27,0,0,0,0,17.37A11.69,11.69,0,0,0,844.46,340.15Z"/><path class="cls-4" d="M892.27,341a.81.81,0,0,1-.25.59.8.8,0,0,1-.58.25.74.74,0,0,1-.58-.25.81.81,0,0,1-.25-.59v-6.67a13.91,13.91,0,0,1-12.37,7.46,14.11,14.11,0,1,1,9.93-24.1,13.67,13.67,0,0,1,4.1,10ZM887,318.84a12.32,12.32,0,0,0-17.47,0,12.5,12.5,0,0,0,0,17.62,12.32,12.32,0,0,0,17.47,0,12.5,12.5,0,0,0,0-17.62ZM872.92,310a.8.8,0,0,1,.58-.25h3.19a.84.84,0,0,1,.61.25.79.79,0,0,1,.25.58.81.81,0,0,1-.25.6.83.83,0,0,1-.61.25H873.5a.8.8,0,0,1-.58-.25.81.81,0,0,1-.25-.6A.79.79,0,0,1,872.92,310Zm8,1.43a.8.8,0,0,1-.58-.25.82.82,0,0,1-.25-.6.79.79,0,0,1,.25-.58.81.81,0,0,1,.58-.25h3.22a.81.81,0,0,1,.58.25.79.79,0,0,1,.25.58.82.82,0,0,1-.25.6.8.8,0,0,1-.58.25Z"/><path class="cls-4" d="M926,327.86v.08l0,.06a13.58,13.58,0,0,1-4.13,10,13.92,13.92,0,0,1-19.79,0,14.16,14.16,0,0,1,0-19.94,13.44,13.44,0,0,1,9.9-4.13,13.79,13.79,0,0,1,7.29,2,14,14,0,0,1,5,5.39V302.56a.81.81,0,0,1,.25-.59.8.8,0,0,1,.58-.25.83.83,0,0,1,.61.25.81.81,0,0,1,.25.59Zm-14,12.56a11.87,11.87,0,0,0,8.73-3.66A12.41,12.41,0,0,0,912,315.58a11.82,11.82,0,0,0-8.71,3.63,12.43,12.43,0,0,0,0,17.56A11.77,11.77,0,0,0,912,340.42Z"/><path class="cls-4" d="M932.55,313.4a.83.83,0,0,1,.61.25.85.85,0,0,1,.22.59V341a.86.86,0,0,1-.22.59.83.83,0,0,1-.61.25.8.8,0,0,1-.58-.25.81.81,0,0,1-.25-.59V314.23a.8.8,0,0,1,.25-.59A.79.79,0,0,1,932.55,313.4Zm.11-9.77a.71.71,0,0,1,.55.25.75.75,0,0,1,.25.59v5a.81.81,0,0,1-.25.59.75.75,0,0,1-.55.22.78.78,0,0,1-.58-.22.8.8,0,0,1-.25-.59v-5a.75.75,0,0,1,.25-.59A.74.74,0,0,1,932.66,303.62Z"/><path class="cls-4" d="M967.54,327.58a.46.46,0,0,1,0,.11.74.74,0,0,1-.8.7H941.37a11.93,11.93,0,0,0,3.74,8.4,11.76,11.76,0,0,0,8.51,3.46,12.15,12.15,0,0,0,5.68-1.4,12.32,12.32,0,0,0,4.38-3.91.89.89,0,0,1,.55-.36h.14a.87.87,0,0,1,.47.14.8.8,0,0,1,.33.56.56.56,0,0,1,0,.17.67.67,0,0,1-.17.45,13.87,13.87,0,0,1-5,4.44,13.61,13.61,0,0,1-6.43,1.59,13.45,13.45,0,0,1-9.87-4.1,13.66,13.66,0,0,1-4-9.91v-.45a13.7,13.7,0,0,1,4.21-9.63,13.89,13.89,0,0,1,19.43,0,13.53,13.53,0,0,1,4.19,9.69Zm-1.72-.87a12,12,0,0,0-3.91-8,12.29,12.29,0,0,0-16.58,0,12,12,0,0,0-3.94,7.94Z"/><path class="cls-4" d="M226.37,347.29l.69-.17q2.55-.63,5.07-1.33l1-.29q2.09-.6,4.17-1.25l2.12-.68,2.86-1q1.88-.65,3.74-1.35l1.18-.45a169.55,169.55,0,0,0,66.65-46.18,3.51,3.51,0,0,0,.56-.89,169.62,169.62,0,0,0,38.21-76.84,3.55,3.55,0,1,0-7-1.45A163.06,163.06,0,0,1,244.31,334.29l-.25.1c-1.61.61-3.24,1.19-4.88,1.76l-1.08.37q-2.08.7-4.19,1.34l-1.72.52c-1.23.36-2.46.7-3.7,1l-2.16.57c-1.13.29-2.26.55-3.4.82-.92.21-1.84.43-2.77.62l-1.63.34c-1.51.31-3,.59-4.56.86l-.44.08q-2.68.45-5.38.82l-.67.09q-2.59.34-5.19.6l-.21,0q-5.72.56-11.49.71h0q-5.74.15-11.5-.11h-.28q-5.52-.26-11.05-.9l-1.16-.14c-1.36-.17-2.72-.35-4.07-.56l-1.46-.22c-1.49-.24-3-.5-4.47-.78L154,341.7l-2-.43a163.69,163.69,0,0,1-74.79-38.46l0,0c-.73-.66-1.45-1.33-2.16-2s-1.2-1.14-1.8-1.71l-.37-.36A162.66,162.66,0,0,1,81,58.54a3.55,3.55,0,0,0,.4-.42,162.13,162.13,0,0,1,69.92-34.6C238.1,4.34,324.93,59.2,344.88,145.8a3.55,3.55,0,0,0,6.92-1.59A169.77,169.77,0,0,0,65.61,63a3.5,3.5,0,0,0-.44.57,169.15,169.15,0,0,0-37.94,60.05,3.52,3.52,0,0,0-.44.81,168.81,168.81,0,0,0-10.11,60.76c0,.49,0,1,0,1.48,0,1,0,2.06.1,3.09.07,1.58.17,3.16.28,4.74,0,.49.08,1,.12,1.48q.18,2.28.43,4.56c0,.25,0,.49.08.74q.32,2.85.74,5.69l0,.15q.4,2.72.9,5.44l.12.68c.34,1.83.7,3.65,1.11,5.46l0,.19A169.67,169.67,0,0,0,220.13,348.67l1.33-.28,1.56-.32Q224.7,347.7,226.37,347.29Z"/><path class="cls-4" d="M349.07,180.29V181a3.55,3.55,0,1,0,7.1-.07v-.72a3.65,3.65,0,0,0-3.62-3.57l.07.08h0A3.55,3.55,0,0,0,349.07,180.29Z"/></svg>