<svg id="Layer_1" data-name="Layer 1" xmlns="http://www.w3.org/2000/svg" viewBox="0 0 160 160"><defs><style>.cls-1{fill:#fff;}</style></defs><title>201216_Logo Albstadt</title><path class="cls-1" d="M114.68,138.24H42.52A3.55,3.55,0,0,1,39,134.69V108.44a28.41,28.41,0,0,1-5.45.52A28.94,28.94,0,1,1,39,51.61V25.31a3.55,3.55,0,0,1,3.55-3.55h31a3.55,3.55,0,0,1,3.32,4.8,21.84,21.84,0,1,0,42.26,7.75,20.81,20.81,0,0,0-1.44-7.69,3.55,3.55,0,0,1,3.3-4.86h31a3.55,3.55,0,0,1,3.55,3.55V41.47a3.55,3.55,0,1,1-7.1,0V28.87H125.65a28.41,28.41,0,0,1,.52,5.45,28.94,28.94,0,1,1-57.36-5.45H46.07V56.28a3.55,3.55,0,0,1-4.8,3.32,21.84,21.84,0,1,0-7.75,42.26,20.81,20.81,0,0,0,7.69-1.44,3.55,3.55,0,0,1,4.86,3.3v27.41h68.6a33.77,33.77,0,0,0,30.7-19.87,3.55,3.55,0,0,1,6.47,2.92A40.89,40.89,0,0,1,114.68,138.24Zm37.22-57a3.55,3.55,0,0,1-3.55-3.55V77a3.55,3.55,0,1,1,7.1,0v.71A3.55,3.55,0,0,1,151.89,81.24Z"/></svg>