<svg id="Layer_1" data-name="Layer 1" xmlns="http://www.w3.org/2000/svg" viewBox="0 0 160 160"><defs><style>.cls-1{fill:#fff;}</style></defs><title>201216_Logo Albstadt</title><path class="cls-1" d="M80,155.44A29,29,0,0,1,51.61,121H25.31a3.55,3.55,0,0,1-3.55-3.55V85.7A3.55,3.55,0,0,1,27,82.59,21.36,21.36,0,0,0,37.41,85.3c12,0,21.81-10.1,21.81-22.51S49.43,40.29,37.41,40.29A20.77,20.77,0,0,0,27.08,43a3.55,3.55,0,0,1-5.32-3.08V8.11a3.55,3.55,0,0,1,3.55-3.55H86.63a3.55,3.55,0,0,1,0,7.1H28.87V34.49a28.47,28.47,0,0,1,8.54-1.3c15.94,0,28.91,13.28,28.91,29.61S53.35,92.4,37.41,92.4a28.34,28.34,0,0,1-8.54-1.33v22.85H56.28a3.55,3.55,0,0,1,3.32,4.8,21.84,21.84,0,1,0,42.26,7.75,20.81,20.81,0,0,0-1.44-7.69,3.55,3.55,0,0,1,3.3-4.86h27.41V47.75a3.55,3.55,0,1,1,7.1,0v69.73a3.55,3.55,0,0,1-3.55,3.55H108.44a28.41,28.41,0,0,1,.52,5.45A29,29,0,0,1,80,155.44ZM120.91,20a3.53,3.53,0,0,1-2.24-.8l-.51-.4a3.55,3.55,0,0,1,4.39-5.59l.6.48a3.55,3.55,0,0,1-2.24,6.3Z"/></svg>