<svg id="Layer_1" data-name="Layer 1" xmlns="http://www.w3.org/2000/svg" viewBox="0 0 160 160"><defs><style>.cls-1{fill:#fff;}</style></defs><title>201216_Logo Albstadt</title><path class="cls-1" d="M116,138.24H85a3.55,3.55,0,0,1-3.33-4.8,21.84,21.84,0,1,0-42.26-7.75,20.81,20.81,0,0,0,1.45,7.69,3.55,3.55,0,0,1-3.3,4.86h-31A3.55,3.55,0,0,1,3,134.69V69.12a3.55,3.55,0,1,1,7.1,0v62H32.83a28.41,28.41,0,0,1-.52-5.45,28.94,28.94,0,1,1,57.36,5.45h22.74V102.9a3.55,3.55,0,0,1,5.28-3.1,21.36,21.36,0,0,0,10.37,2.71c12,0,21.81-10.1,21.81-22.51s-9.78-22.51-21.81-22.51a20.77,20.77,0,0,0-10.33,2.68,3.55,3.55,0,0,1-5.32-3.08V28.86H50.48a3.55,3.55,0,1,1,0-7.1H116a3.55,3.55,0,0,1,3.55,3.55V51.69a28.44,28.44,0,0,1,8.54-1.3C144,50.39,157,63.67,157,80s-13,29.61-28.91,29.61a28.34,28.34,0,0,1-8.54-1.33v26.4A3.55,3.55,0,0,1,116,138.24ZM17.29,40a3.55,3.55,0,0,1-2.53-6l.55-.55a3.55,3.55,0,1,1,5,5.08l-.45.45A3.54,3.54,0,0,1,17.29,40Z"/></svg>