<svg id="Layer_1" data-name="Layer 1" xmlns="http://www.w3.org/2000/svg" viewBox="0 0 160 160"><defs><style>.cls-1{fill:#fff;}</style></defs><title>201216_Logo Albstadt</title><path class="cls-1" d="M134.69,155.44H118.53a3.55,3.55,0,1,1,0-7.1h12.6V125.65a28.41,28.41,0,0,1-5.45.52,28.94,28.94,0,1,1,5.45-57.36V46.07H103.72a3.55,3.55,0,0,1-3.33-4.8,21.84,21.84,0,1,0-42.26-7.75,20.81,20.81,0,0,0,1.45,7.69,3.55,3.55,0,0,1-3.3,4.86H28.87v68.6a33.77,33.77,0,0,0,19.87,30.7,3.55,3.55,0,1,1-2.92,6.47,40.89,40.89,0,0,1-24-37.17V42.52A3.55,3.55,0,0,1,25.31,39H51.56A28.41,28.41,0,0,1,51,33.52,28.94,28.94,0,1,1,108.39,39h26.29a3.55,3.55,0,0,1,3.55,3.55v31a3.55,3.55,0,0,1-4.8,3.32,21.84,21.84,0,1,0-7.75,42.26,20.81,20.81,0,0,0,7.69-1.44,3.55,3.55,0,0,1,4.86,3.3v31A3.55,3.55,0,0,1,134.69,155.44Zm-51.66,0h-.71a3.55,3.55,0,1,1,0-7.1H83a3.55,3.55,0,1,1,0,7.1Z"/></svg>